<mxfile host="app.diagrams.net" agent="Mozilla/5.0 (Windows NT 10.0; Win64; x64) AppleWebKit/537.36 (KHTML, like Gecko) Chrome/130.0.0.0 Safari/537.36 OPR/115.0.0.0" version="25.0.3">
  <diagram name="Page-1" id="2YBvvXClWsGukQMizWep">
    <mxGraphModel dx="1380" dy="739" grid="1" gridSize="10" guides="1" tooltips="1" connect="1" arrows="1" fold="1" page="1" pageScale="1" pageWidth="850" pageHeight="1100" math="0" shadow="0">
      <root>
        <mxCell id="0" />
        <mxCell id="1" parent="0" />
        <mxCell id="53yGHsOiiEfzzfxZc6D--91" value="ms-cliente" style="shape=umlLifeline;perimeter=lifelinePerimeter;whiteSpace=wrap;html=1;container=0;dropTarget=0;collapsible=0;recursiveResize=0;outlineConnect=0;portConstraint=eastwest;newEdgeStyle={&quot;edgeStyle&quot;:&quot;elbowEdgeStyle&quot;,&quot;elbow&quot;:&quot;vertical&quot;,&quot;curved&quot;:0,&quot;rounded&quot;:0};labelBackgroundColor=none;" parent="1" vertex="1">
          <mxGeometry x="540" y="50" width="100" height="630" as="geometry" />
        </mxCell>
        <mxCell id="53yGHsOiiEfzzfxZc6D--92" value="" style="html=1;points=[];perimeter=orthogonalPerimeter;outlineConnect=0;targetShapes=umlLifeline;portConstraint=eastwest;newEdgeStyle={&quot;edgeStyle&quot;:&quot;elbowEdgeStyle&quot;,&quot;elbow&quot;:&quot;vertical&quot;,&quot;curved&quot;:0,&quot;rounded&quot;:0};labelBackgroundColor=none;" parent="53yGHsOiiEfzzfxZc6D--91" vertex="1">
          <mxGeometry x="45" y="90" width="10" height="480" as="geometry" />
        </mxCell>
        <mxCell id="53yGHsOiiEfzzfxZc6D--93" value="DELETE: /clientes/&lt;span style=&quot;font-size: 10px; text-align: left; text-wrap-mode: wrap;&quot;&gt;{id&lt;/span&gt;&lt;span style=&quot;font-size: 10px; text-align: left; text-wrap-mode: wrap;&quot;&gt;}&lt;/span&gt;" style="html=1;verticalAlign=bottom;endArrow=block;edgeStyle=elbowEdgeStyle;elbow=vertical;curved=0;rounded=0;labelBackgroundColor=none;fontColor=default;" parent="1" source="53yGHsOiiEfzzfxZc6D--96" target="53yGHsOiiEfzzfxZc6D--92" edge="1">
          <mxGeometry x="0.0013" relative="1" as="geometry">
            <mxPoint x="310" y="140" as="sourcePoint" />
            <Array as="points">
              <mxPoint x="395" y="140" />
            </Array>
            <mxPoint x="580" y="140" as="targetPoint" />
            <mxPoint as="offset" />
          </mxGeometry>
        </mxCell>
        <mxCell id="53yGHsOiiEfzzfxZc6D--95" value="Cliente" style="shape=umlActor;verticalLabelPosition=bottom;verticalAlign=top;html=1;outlineConnect=0;labelBackgroundColor=none;" parent="1" vertex="1">
          <mxGeometry x="280" y="20" width="30" height="60" as="geometry" />
        </mxCell>
        <mxCell id="53yGHsOiiEfzzfxZc6D--96" value="" style="html=1;points=[];perimeter=orthogonalPerimeter;outlineConnect=0;targetShapes=umlLifeline;portConstraint=eastwest;newEdgeStyle={&quot;edgeStyle&quot;:&quot;elbowEdgeStyle&quot;,&quot;elbow&quot;:&quot;vertical&quot;,&quot;curved&quot;:0,&quot;rounded&quot;:0};labelBackgroundColor=none;" parent="1" vertex="1">
          <mxGeometry x="290" y="140" width="10" height="540" as="geometry" />
        </mxCell>
        <mxCell id="53yGHsOiiEfzzfxZc6D--97" value="" style="endArrow=none;dashed=1;html=1;rounded=0;labelBackgroundColor=none;fontColor=default;" parent="1" edge="1">
          <mxGeometry width="50" height="50" relative="1" as="geometry">
            <mxPoint x="294.55" y="140" as="sourcePoint" />
            <mxPoint x="295" y="100" as="targetPoint" />
          </mxGeometry>
        </mxCell>
        <mxCell id="53yGHsOiiEfzzfxZc6D--103" value="" style="endArrow=none;dashed=1;html=1;rounded=0;entryX=0.5;entryY=1;entryDx=0;entryDy=0;entryPerimeter=0;" parent="1" source="53yGHsOiiEfzzfxZc6D--115" edge="1">
          <mxGeometry width="50" height="50" relative="1" as="geometry">
            <mxPoint x="795.0000000000002" y="760" as="sourcePoint" />
            <mxPoint x="795" y="90" as="targetPoint" />
          </mxGeometry>
        </mxCell>
        <mxCell id="53yGHsOiiEfzzfxZc6D--104" value="deleteById in bd" style="html=1;verticalAlign=bottom;endArrow=block;curved=0;rounded=0;" parent="1" edge="1">
          <mxGeometry width="80" relative="1" as="geometry">
            <mxPoint x="600" y="480" as="sourcePoint" />
            <mxPoint x="790" y="480" as="targetPoint" />
          </mxGeometry>
        </mxCell>
        <mxCell id="53yGHsOiiEfzzfxZc6D--105" value="response" style="html=1;verticalAlign=bottom;endArrow=open;dashed=1;endSize=8;curved=0;rounded=0;" parent="1" edge="1">
          <mxGeometry relative="1" as="geometry">
            <mxPoint x="790" y="550" as="sourcePoint" />
            <mxPoint x="599.590909090909" y="550" as="targetPoint" />
          </mxGeometry>
        </mxCell>
        <mxCell id="53yGHsOiiEfzzfxZc6D--106" value="response" style="html=1;verticalAlign=bottom;endArrow=open;dashed=1;endSize=8;curved=0;rounded=0;" parent="1" edge="1">
          <mxGeometry relative="1" as="geometry">
            <mxPoint x="585" y="580" as="sourcePoint" />
            <mxPoint x="300" y="580" as="targetPoint" />
          </mxGeometry>
        </mxCell>
        <mxCell id="53yGHsOiiEfzzfxZc6D--107" value="&lt;font style=&quot;font-size: 10px;&quot;&gt;HTTP 204 No content&lt;/font&gt;&lt;div&gt;&lt;br&gt;&lt;/div&gt;" style="shape=note;whiteSpace=wrap;html=1;backgroundOutline=1;darkOpacity=0.05;align=center;" parent="1" vertex="1">
          <mxGeometry x="130" y="530" width="160" height="150" as="geometry" />
        </mxCell>
        <mxCell id="53yGHsOiiEfzzfxZc6D--108" value="&lt;b&gt;&lt;font style=&quot;font-size: 15px;&quot;&gt;Eliminar un cliente&lt;/font&gt;&lt;/b&gt;" style="text;html=1;align=center;verticalAlign=middle;resizable=0;points=[];autosize=1;strokeColor=none;fillColor=none;" parent="1" vertex="1">
          <mxGeometry x="360" y="10" width="160" height="30" as="geometry" />
        </mxCell>
        <mxCell id="53yGHsOiiEfzzfxZc6D--110" value="Cliente no existe" style="html=1;verticalAlign=bottom;endArrow=open;dashed=1;endSize=8;edgeStyle=elbowEdgeStyle;elbow=vertical;curved=0;rounded=0;labelBackgroundColor=none;fontColor=default;" parent="1" edge="1">
          <mxGeometry relative="1" as="geometry">
            <mxPoint x="300" y="330" as="targetPoint" />
            <Array as="points">
              <mxPoint x="405" y="330" />
            </Array>
            <mxPoint x="580" y="330" as="sourcePoint" />
          </mxGeometry>
        </mxCell>
        <mxCell id="53yGHsOiiEfzzfxZc6D--111" value="alt" style="shape=umlFrame;whiteSpace=wrap;html=1;pointerEvents=0;" parent="1" vertex="1">
          <mxGeometry x="20" y="260" width="620" height="160" as="geometry" />
        </mxCell>
        <mxCell id="53yGHsOiiEfzzfxZc6D--112" value="[Caso invÃ¡lido: Cliente no existe]" style="text;html=1;align=center;verticalAlign=middle;whiteSpace=wrap;rounded=0;" parent="1" vertex="1">
          <mxGeometry x="110" y="260" width="180" height="30" as="geometry" />
        </mxCell>
        <mxCell id="53yGHsOiiEfzzfxZc6D--113" value="&lt;font style=&quot;font-size: 10px;&quot;&gt;HTTP 404 Not found&lt;/font&gt;&lt;div&gt;&lt;span style=&quot;font-size: 10px; background-color: initial;&quot;&gt;{&lt;/span&gt;&lt;/div&gt;&lt;div&gt;&lt;font style=&quot;font-size: 10px;&quot;&gt;&lt;span style=&quot;white-space: pre;&quot;&gt;&#x9;&lt;/span&gt;&quot;statusCode&quot;: 404,&lt;/font&gt;&lt;/div&gt;&lt;div&gt;&lt;font style=&quot;font-size: 10px;&quot;&gt;&lt;span style=&quot;white-space: pre;&quot;&gt;&#x9;&lt;/span&gt;&quot;error&quot;: &quot;Cliente no encontrado&quot;,&lt;/font&gt;&lt;/div&gt;&lt;div&gt;&lt;font style=&quot;font-size: 10px;&quot;&gt;&lt;span style=&quot;white-space: pre;&quot;&gt;&#x9;&lt;/span&gt;&quot;message&quot;: &quot;Cliente con id: 2342-2341 no existe&quot;&lt;/font&gt;&lt;/div&gt;&lt;div&gt;&lt;font style=&quot;font-size: 10px;&quot;&gt;}&lt;/font&gt;&lt;/div&gt;" style="shape=note;whiteSpace=wrap;html=1;backgroundOutline=1;darkOpacity=0.05;align=left;" parent="1" vertex="1">
          <mxGeometry x="30" y="305" width="250" height="100" as="geometry" />
        </mxCell>
        <mxCell id="53yGHsOiiEfzzfxZc6D--114" value="findById in bd" style="html=1;verticalAlign=bottom;endArrow=block;curved=0;rounded=0;" parent="1" edge="1">
          <mxGeometry width="80" relative="1" as="geometry">
            <mxPoint x="600" y="190" as="sourcePoint" />
            <mxPoint x="790" y="190" as="targetPoint" />
          </mxGeometry>
        </mxCell>
        <mxCell id="53yGHsOiiEfzzfxZc6D--116" value="return false" style="html=1;verticalAlign=bottom;endArrow=open;dashed=1;endSize=8;curved=0;rounded=0;" parent="1" edge="1">
          <mxGeometry relative="1" as="geometry">
            <mxPoint x="790" y="250" as="sourcePoint" />
            <mxPoint x="600" y="250" as="targetPoint" />
          </mxGeometry>
        </mxCell>
        <mxCell id="53yGHsOiiEfzzfxZc6D--117" value="return true" style="html=1;verticalAlign=bottom;endArrow=open;dashed=1;endSize=8;curved=0;rounded=0;" parent="1" edge="1">
          <mxGeometry relative="1" as="geometry">
            <mxPoint x="790" y="440" as="sourcePoint" />
            <mxPoint x="600" y="440" as="targetPoint" />
          </mxGeometry>
        </mxCell>
        <mxCell id="53yGHsOiiEfzzfxZc6D--119" value="MongoDb" style="shape=cylinder3;whiteSpace=wrap;html=1;boundedLbl=1;backgroundOutline=1;size=15;" parent="1" vertex="1">
          <mxGeometry x="760" y="20" width="70" height="70" as="geometry" />
        </mxCell>
        <mxCell id="53yGHsOiiEfzzfxZc6D--120" value="" style="endArrow=none;dashed=1;html=1;rounded=0;entryX=0.5;entryY=1;entryDx=0;entryDy=0;entryPerimeter=0;" parent="1" source="53yGHsOiiEfzzfxZc6D--118" target="53yGHsOiiEfzzfxZc6D--115" edge="1">
          <mxGeometry width="50" height="50" relative="1" as="geometry">
            <mxPoint x="795.0000000000002" y="760" as="sourcePoint" />
            <mxPoint x="795" y="90" as="targetPoint" />
          </mxGeometry>
        </mxCell>
        <mxCell id="53yGHsOiiEfzzfxZc6D--115" value="" style="html=1;points=[];perimeter=orthogonalPerimeter;outlineConnect=0;targetShapes=umlLifeline;portConstraint=eastwest;newEdgeStyle={&quot;edgeStyle&quot;:&quot;elbowEdgeStyle&quot;,&quot;elbow&quot;:&quot;vertical&quot;,&quot;curved&quot;:0,&quot;rounded&quot;:0};labelBackgroundColor=none;" parent="1" vertex="1">
          <mxGeometry x="790" y="190" width="10" height="250" as="geometry" />
        </mxCell>
        <mxCell id="53yGHsOiiEfzzfxZc6D--121" value="" style="endArrow=none;dashed=1;html=1;rounded=0;entryX=0.5;entryY=1;entryDx=0;entryDy=0;entryPerimeter=0;" parent="1" target="53yGHsOiiEfzzfxZc6D--118" edge="1">
          <mxGeometry width="50" height="50" relative="1" as="geometry">
            <mxPoint x="795" y="680" as="sourcePoint" />
            <mxPoint x="795" y="250" as="targetPoint" />
          </mxGeometry>
        </mxCell>
        <mxCell id="53yGHsOiiEfzzfxZc6D--118" value="" style="html=1;points=[];perimeter=orthogonalPerimeter;outlineConnect=0;targetShapes=umlLifeline;portConstraint=eastwest;newEdgeStyle={&quot;edgeStyle&quot;:&quot;elbowEdgeStyle&quot;,&quot;elbow&quot;:&quot;vertical&quot;,&quot;curved&quot;:0,&quot;rounded&quot;:0};labelBackgroundColor=none;" parent="1" vertex="1">
          <mxGeometry x="790" y="480" width="10" height="70" as="geometry" />
        </mxCell>
      </root>
    </mxGraphModel>
  </diagram>
</mxfile>
